<svg xmlns="http://www.w3.org/2000/svg" viewBox="0 0 120 120" role="img" aria-labelledby="title desc">
  <title id="title">Café Le Cinq</title>
  <desc id="desc">Monogramme franco-arabe fusionnant le chiffre cinq et la lettre kha</desc>
  <circle cx="60" cy="60" r="57" fill="#382219"/>
  <circle cx="60" cy="60" r="49.5" fill="none" stroke="#c69a61" stroke-width="1" opacity=".75"/>
  <path d="M34 27h44l-3.8 10H46.8l-2.5 16.6c5.2-2.5 10.4-3.8 15.8-3.8 18 0 28.5 10.7 28.5 26.1 0 18.2-13.5 29.8-32.8 29.8-10.4 0-19.1-3.1-26.2-9.3l6.7-8.2c5.7 4.5 11.8 6.7 18.2 6.7 12.6 0 21.2-7.2 21.2-18 0-10-7.5-16.7-18.6-16.7-6.1 0-11.6 1.8-16.6 5.5l-8-4.1L34 27Z" fill="#f8f0e3"/>
  <path d="M28 83c11.5 8.7 24.8 12.5 39.8 11.5 12.2-.8 20.5-5.4 25-13.8-1.6 13.4-10.1 22-25.6 25.8-17.1 4.1-31.2-3.7-42.2-23.5h3Z" fill="#c69a61"/>
  <path d="M76 47c7.9-7.2 13.8-15 17.7-23.5-1.1 13.7-5.6 24.5-13.4 32.4l-4.3-8.9Z" fill="#c69a61"/>
  <circle cx="91" cy="18.5" r="3.7" fill="#c69a61" transform="rotate(45 91 18.5)"/>
</svg>
