<svg xmlns="http://www.w3.org/2000/svg" viewBox="0 0 120 120" role="img" aria-labelledby="title desc">
  <title id="title">Café Le Cinq</title>
  <desc id="desc">Monogramme français fusionnant le chiffre cinq et la lettre C</desc>
  <circle cx="60" cy="60" r="57" fill="#382219"/>
  <circle cx="60" cy="60" r="49.5" fill="none" stroke="#c69a61" stroke-width="1.2" opacity=".9"/>
  <path d="M37 25h45l-4 10.5H49L46.2 54c4.6-2.6 10-4 16-4 17.4 0 27.8 10.2 27.8 25.2 0 17.7-13.2 28.8-31.8 28.8-9.7 0-18.3-2.8-25.8-8.5l6.3-8.5c5.8 4.2 11.8 6.3 18.2 6.3 12.1 0 20.2-7 20.2-17.3 0-9.6-7-16-17.7-16-6 0-11.8 2-17.2 6l-8.4-4.2L37 25Z" fill="#f8f0e3"/>
  <path d="M87 67.5c-3.5-8.2-11.4-13.1-21.4-13.1-14.1 0-24.5 10.2-24.5 23.1 0 13.2 10.7 23.2 24.8 23.2 9.6 0 17.2-4.2 22.2-11.6-3.3 12.1-12.3 19.4-25.4 19.4-18 0-31.7-13-31.7-30.4 0-17.7 14.2-31.2 32.9-31.2 12.7 0 21.1 7 23.1 20.6Z" fill="#c69a61"/>
</svg>
